<?xml version="1.0" standalone="no"?>
<!DOCTYPE svg PUBLIC "-//W3C//DTD SVG 20010904//EN"
 "http://www.w3.org/TR/2001/REC-SVG-20010904/DTD/svg10.dtd">
<svg version="1.0" xmlns="http://www.w3.org/2000/svg"
 width="774.000000pt" height="774.000000pt" viewBox="0 0 774.000000 774.000000"
 preserveAspectRatio="xMidYMid meet">
<metadata>
Created by potrace 1.11, written by Peter Selinger 2001-2013
</metadata>
<g transform="translate(0.000000,774.000000) scale(0.100000,-0.100000)"
fill="#000000" stroke="none">
<path d="M3710 7720 c0 -4 -62 -9 -137 -9 -153 -2 -179 -5 -176 -17 1 -5 -30
-9 -68 -8 -37 1 -66 -2 -64 -6 2 -4 -21 -8 -52 -9 -32 -1 -61 -7 -65 -14 -6
-9 -8 -9 -8 2 0 10 -3 11 -13 2 -8 -6 -17 -8 -20 -4 -4 3 -7 1 -7 -5 0 -6 -9
-9 -20 -7 -11 2 -20 -2 -20 -8 0 -7 -4 -6 -10 3 -9 13 -12 13 -24 -2 -7 -10
-16 -15 -20 -11 -4 4 -11 1 -16 -7 -6 -8 -10 -10 -10 -4 0 6 -7 11 -15 11 -8
0 -13 -3 -10 -5 3 -3 -5 -10 -18 -17 -15 -8 -24 -8 -29 -1 -5 7 -8 6 -8 -2 0
-7 -4 -10 -10 -7 -5 3 -10 2 -10 -2 0 -5 -16 -8 -35 -7 -21 1 -35 -3 -35 -10
0 -6 -5 -4 -10 4 -8 12 -10 12 -10 1 0 -8 -7 -11 -20 -8 -11 3 -18 2 -15 -3 3
-4 -2 -10 -10 -14 -10 -3 -15 1 -16 12 0 14 -2 14 -6 2 -11 -26 -31 -42 -36
-27 -4 9 -6 9 -6 -1 -1 -7 -5 -10 -11 -7 -5 3 -10 1 -10 -6 0 -8 -3 -9 -14 0
-10 9 -16 8 -26 -4 -9 -10 -16 -12 -24 -5 -8 6 -18 3 -30 -12 -15 -17 -20 -18
-27 -7 -5 8 -9 10 -9 4 0 -14 -50 -36 -50 -22 0 6 -7 2 -15 -9 -8 -10 -15 -14
-15 -9 0 6 -5 3 -10 -5 -7 -11 -10 -11 -10 -2 0 7 -5 10 -10 7 -6 -4 -7 -11
-4 -17 5 -7 -1 -9 -16 -5 -17 4 -23 1 -27 -14 -5 -16 -8 -18 -14 -7 -7 10 -9
11 -9 0 0 -7 -4 -10 -10 -7 -5 3 -10 1 -10 -5 0 -6 -4 -8 -10 -5 -5 3 -10 1
-10 -4 0 -6 -3 -10 -7 -10 -22 4 -43 -2 -39 -10 4 -5 -4 -7 -16 -3 -16 4 -19
2 -13 -8 5 -9 4 -11 -4 -6 -13 8 -71 -11 -71 -23 0 -4 -16 -13 -35 -21 -19 -8
-35 -16 -35 -20 0 -3 -12 -7 -26 -8 -15 -1 -32 -6 -39 -12 -6 -5 -16 -6 -20
-2 -5 4 -5 1 0 -6 5 -10 10 -11 18 -3 6 6 15 11 21 11 5 0 1 -6 -9 -14 -11 -8
-24 -12 -31 -9 -6 2 -14 -4 -18 -14 -6 -15 -8 -15 -16 -3 -7 10 -10 11 -10 3
0 -7 -7 -13 -16 -13 -9 0 -14 -6 -11 -13 3 -8 0 -14 -6 -15 -28 -2 -46 -9 -61
-21 -8 -7 -21 -9 -27 -5 -7 4 -9 3 -5 -4 3 -6 -3 -13 -14 -17 -11 -4 -17 -11
-14 -17 4 -5 -4 -4 -17 3 -21 11 -23 11 -11 -3 10 -13 10 -17 -3 -22 -11 -4
-14 -2 -10 7 4 6 -1 3 -10 -8 -9 -11 -19 -19 -23 -18 -4 1 -6 -4 -4 -11 1 -7
-4 -13 -13 -13 -8 0 -12 4 -9 9 3 4 -2 5 -10 2 -9 -3 -13 -11 -9 -17 4 -6 0
-8 -10 -4 -11 4 -22 -1 -29 -13 -7 -11 -19 -20 -26 -20 -8 0 -12 -6 -9 -14 4
-10 1 -13 -9 -9 -10 4 -24 -5 -39 -23 -13 -16 -28 -30 -34 -30 -6 -1 -16 -2
-22 -3 -5 0 -7 -5 -4 -11 6 -9 -16 -15 -39 -11 -5 1 -3 -6 5 -15 12 -15 12
-16 0 -9 -9 5 -20 0 -33 -16 -11 -13 -17 -18 -13 -12 4 8 1 11 -9 7 -8 -3 -12
-12 -9 -20 3 -9 -2 -14 -13 -14 -11 0 -28 -8 -39 -17 -16 -13 -17 -15 -2 -10
27 10 20 -2 -9 -13 -14 -6 -23 -14 -19 -19 3 -6 -3 -8 -14 -6 -15 3 -18 0 -14
-13 6 -15 5 -16 -13 -2 -10 8 -16 10 -11 5 4 -4 -3 -16 -16 -24 -12 -9 -23
-25 -22 -35 0 -11 -7 -21 -15 -23 -12 -4 -12 -3 -2 5 11 8 11 10 0 15 -8 3
-15 0 -15 -7 0 -18 -34 -66 -47 -66 -7 0 -7 3 -1 8 6 4 17 16 25 27 11 15 8
14 -12 -4 -15 -13 -25 -28 -22 -32 5 -9 -60 -79 -73 -79 -4 0 -3 4 2 8 6 4 17
16 25 27 11 16 9 15 -12 -3 -17 -15 -24 -31 -22 -45 2 -12 2 -16 -2 -9 -9 18
-27 15 -20 -4 5 -14 4 -15 -8 -5 -11 9 -14 8 -12 -6 0 -10 -4 -17 -11 -16 -7
2 -10 -6 -8 -18 3 -17 1 -19 -10 -9 -8 7 -15 7 -19 1 -3 -5 0 -12 6 -15 7 -4
4 -5 -8 -2 -12 2 -21 -2 -21 -10 0 -7 4 -11 9 -8 4 3 8 0 8 -5 0 -6 -6 -11
-14 -11 -8 0 -18 -5 -22 -12 -5 -7 -3 -8 6 -3 9 6 11 4 6 -4 -5 -7 -14 -10
-22 -7 -8 3 -14 1 -14 -4 0 -6 5 -10 10 -10 6 0 10 -5 10 -11 0 -5 -5 -7 -10
-4 -6 3 -10 1 -10 -4 0 -6 -5 -11 -11 -11 -5 0 -7 5 -3 12 4 7 3 8 -5 4 -6 -4
-9 -12 -6 -17 6 -8 -8 -13 -27 -10 -5 0 -8 -4 -8 -10 0 -6 8 -8 18 -5 12 4 10
0 -6 -14 -14 -11 -20 -24 -16 -31 5 -8 2 -10 -9 -6 -8 3 -21 -1 -28 -9 -10
-12 -9 -13 6 -8 13 5 16 4 11 -4 -4 -7 -14 -12 -23 -12 -9 0 -13 -3 -10 -7 4
-3 -1 -12 -11 -20 -11 -10 -12 -12 -2 -8 12 5 12 4 -1 -7 -9 -7 -14 -20 -11
-28 4 -12 2 -13 -9 -2 -16 15 -29 16 -29 1 0 -5 5 -7 10 -4 6 3 10 2 10 -4 0
-5 -7 -14 -17 -19 -10 -6 -14 -16 -9 -27 5 -15 4 -16 -9 -5 -11 9 -15 9 -15 1
0 -7 -5 -9 -12 -5 -7 4 -10 4 -6 -1 4 -4 2 -15 -4 -24 -8 -10 -4 -9 10 3 12
11 22 15 22 10 0 -5 -14 -18 -31 -28 -24 -14 -28 -21 -19 -31 10 -11 8 -13 -9
-10 -15 3 -18 0 -14 -12 4 -11 3 -14 -6 -9 -8 5 -10 0 -7 -18 3 -18 1 -23 -9
-19 -10 3 -13 -1 -10 -17 4 -19 2 -20 -12 -8 -15 12 -15 11 -4 -11 8 -15 9
-21 2 -17 -6 4 -11 2 -11 -4 0 -6 -5 -8 -11 -5 -6 4 -9 0 -7 -11 2 -11 -2 -18
-9 -17 -6 1 -14 -4 -17 -13 -3 -8 -1 -12 4 -9 5 3 7 -1 4 -9 -3 -9 -9 -15 -12
-14 -18 2 -26 -3 -15 -10 10 -6 10 -12 -3 -28 -8 -10 -12 -13 -8 -5 5 9 3 12
-5 7 -6 -4 -8 -13 -4 -19 12 -19 12 -37 1 -37 -7 0 -6 -5 1 -14 9 -11 6 -13
-19 -10 -24 3 -30 0 -30 -15 0 -11 -6 -22 -12 -25 -11 -5 -11 -7 0 -12 18 -9
15 -25 -6 -22 -10 2 -17 -3 -17 -12 0 -8 6 -14 13 -12 8 1 11 -2 7 -8 -4 -6
-10 -9 -13 -6 -6 7 -32 -13 -32 -25 0 -4 9 -6 20 -4 11 2 18 0 15 -6 -4 -5
-17 -9 -31 -9 -18 0 -24 -5 -24 -21 0 -17 3 -19 14 -10 9 8 16 8 20 2 4 -5 -2
-14 -11 -20 -10 -6 -13 -11 -8 -11 6 0 3 -5 -5 -10 -10 -6 -11 -10 -2 -10 6 0
12 -5 12 -11 0 -5 -3 -8 -7 -6 -5 3 -13 -1 -20 -8 -10 -11 -10 -15 0 -18 7 -3
1 -9 -13 -15 -14 -6 -20 -11 -13 -11 21 -1 4 -27 -18 -28 -28 -2 -33 -8 -25
-30 6 -14 9 -15 15 -4 6 9 11 10 15 2 4 -6 3 -11 -2 -11 -9 0 -25 -37 -23 -52
1 -5 -10 -8 -24 -8 -15 0 -25 -6 -25 -14 0 -21 21 -31 31 -15 7 11 9 11 9 1 0
-7 -7 -15 -15 -18 -8 -4 -12 -10 -9 -15 3 -5 -1 -9 -8 -9 -10 0 -10 -2 1 -9
11 -7 10 -11 -5 -20 -11 -6 -15 -11 -10 -11 5 0 2 -8 -5 -17 -8 -9 -9 -14 -3
-10 6 3 11 0 11 -8 0 -8 -4 -12 -9 -9 -4 3 -8 -2 -8 -11 0 -8 -7 -18 -15 -21
-12 -5 -13 -9 -4 -21 7 -8 8 -13 3 -12 -26 5 -30 -4 -28 -61 1 -33 -1 -58 -4
-56 -4 2 -8 -7 -9 -21 0 -14 -7 -29 -15 -34 -10 -7 -10 -9 2 -9 10 0 11 -3 4
-8 -15 -9 -21 -43 -11 -59 4 -6 2 -15 -4 -19 -8 -5 -9 -3 -4 6 6 9 4 11 -4 5
-8 -4 -11 -21 -9 -40 2 -19 -1 -33 -6 -32 -12 2 -13 -5 -15 -74 -1 -30 -5 -48
-11 -44 -5 3 -10 1 -10 -4 0 -6 6 -11 13 -11 8 0 8 -3 2 -8 -6 -4 -12 -25 -14
-47 -2 -22 -8 -43 -14 -47 -8 -5 -7 -8 3 -8 13 0 13 -1 0 -10 -13 -9 -13 -10
0 -10 10 0 11 -3 3 -8 -6 -4 -12 -30 -14 -57 -2 -28 -8 -53 -13 -57 -7 -5 -6
-8 3 -8 11 0 11 -3 1 -15 -7 -9 -11 -37 -8 -75 2 -34 -1 -62 -7 -64 -5 -3 -4
-5 4 -5 11 -1 10 -5 -5 -17 -10 -8 -13 -13 -6 -9 6 3 12 1 12 -4 0 -6 -4 -11
-9 -11 -6 0 -10 -110 -11 -275 0 -151 3 -275 8 -275 5 0 10 -46 11 -102 1 -57
6 -105 9 -108 9 -7 11 -19 13 -79 1 -28 7 -51 12 -51 5 0 4 -7 -3 -15 -10 -12
-9 -15 5 -15 14 0 15 -3 6 -14 -7 -8 -8 -17 -3 -20 4 -2 7 -19 6 -35 -1 -17 2
-31 7 -31 5 0 9 -20 9 -45 0 -25 3 -45 8 -45 4 0 8 -19 10 -43 1 -23 7 -44 12
-45 6 -2 8 -8 4 -13 -3 -5 0 -9 7 -9 8 0 9 -4 0 -13 -8 -10 -7 -17 1 -25 7 -7
8 -12 4 -12 -5 0 -3 -6 3 -13 8 -10 7 -14 -4 -14 -8 0 -12 4 -9 9 3 4 0 8 -5
8 -6 0 -11 -9 -11 -20 0 -13 7 -20 20 -20 13 0 20 -7 20 -20 0 -11 5 -20 11
-20 5 0 8 -4 4 -9 -3 -5 2 -17 11 -25 11 -12 12 -16 2 -16 -10 0 -10 -2 1 -9
11 -7 11 -9 0 -14 -10 -4 -10 -6 -1 -6 15 -1 17 -67 2 -76 -7 -4 -7 -11 -2
-18 5 -7 12 -24 16 -39 3 -16 12 -28 19 -28 8 0 7 -4 -3 -10 -12 -8 -12 -10 5
-10 17 0 17 -2 5 -10 -10 -6 -11 -10 -2 -10 6 0 12 -5 12 -11 0 -5 -6 -7 -12
-4 -7 4 -3 -2 9 -13 22 -19 32 -39 15 -28 -5 3 -9 -1 -9 -9 0 -8 3 -13 6 -11
3 2 12 -2 19 -10 8 -9 9 -14 2 -14 -7 0 -6 -5 2 -14 7 -8 18 -11 23 -8 6 3 4
-1 -3 -10 -11 -14 -10 -18 5 -27 13 -7 14 -10 4 -11 -11 0 -10 -4 5 -16 10 -8
12 -13 4 -9 -8 4 -5 -2 8 -14 13 -11 18 -22 12 -26 -5 -3 -10 -11 -10 -16 0
-6 3 -8 7 -6 13 8 28 -16 31 -48 2 -16 8 -32 13 -33 5 -2 7 -8 3 -13 -3 -5 2
-12 11 -15 13 -5 13 -9 3 -22 -10 -12 -10 -14 0 -8 7 4 12 1 12 -8 0 -9 3 -16
8 -16 4 0 12 -11 19 -25 8 -19 8 -23 0 -18 -7 4 -6 -1 2 -10 7 -9 17 -14 22
-11 13 8 11 -10 -3 -25 -11 -11 -9 -12 9 -6 18 5 22 3 17 -9 -4 -11 0 -16 12
-16 14 0 15 -3 6 -12 -7 -7 -12 -16 -12 -22 0 -5 3 -7 6 -3 10 10 32 -17 26
-33 -5 -13 -4 -13 13 0 17 14 18 14 6 -9 -8 -15 -9 -21 -2 -17 6 4 11 2 11 -4
0 -6 5 -8 13 -4 9 6 9 4 -1 -8 -11 -14 -10 -18 7 -28 12 -6 20 -16 18 -23 -1
-7 4 -11 12 -9 12 3 12 0 1 -12 -10 -13 -10 -16 1 -17 8 -1 18 -1 23 0 5 1 4
-5 -3 -13 -10 -12 -8 -18 13 -31 15 -10 30 -33 36 -56 8 -30 16 -39 33 -39 18
0 19 -2 7 -10 -12 -8 -12 -10 5 -10 17 0 17 -2 5 -10 -12 -8 -11 -10 6 -10 12
0 24 -7 27 -14 4 -11 1 -13 -11 -9 -14 6 -15 5 -2 -9 8 -8 21 -13 29 -10 10 4
12 -1 6 -17 -4 -15 -3 -21 6 -19 7 2 13 -2 14 -9 0 -6 15 -25 33 -43 20 -19
31 -38 28 -46 -3 -9 -1 -12 4 -9 6 3 10 -1 10 -9 0 -8 9 -18 21 -21 11 -4 18
-9 15 -12 -7 -7 20 -33 35 -33 8 0 8 -4 -1 -16 -11 -13 -10 -16 8 -21 12 -3
22 -10 22 -15 0 -5 5 -6 12 -2 8 5 9 2 5 -10 -4 -10 -3 -15 3 -11 6 3 13 -1
16 -9 3 -9 10 -14 14 -11 4 3 11 -6 14 -20 4 -16 13 -25 26 -25 14 0 18 -5 13
-17 -3 -10 -2 -15 2 -11 5 5 16 -5 26 -21 10 -16 28 -31 41 -33 13 -2 24 -11
26 -22 3 -13 0 -16 -10 -11 -7 5 -10 4 -5 -1 5 -5 12 -9 15 -9 16 -1 32 -17
26 -27 -4 -6 -2 -8 4 -5 5 4 21 2 34 -3 l23 -11 -25 5 -25 5 25 -19 c14 -11
33 -22 42 -26 10 -3 18 -13 18 -21 0 -9 3 -14 6 -10 4 3 14 -2 23 -11 9 -10
12 -12 8 -6 -7 10 -3 10 17 1 14 -7 21 -13 16 -15 -12 -4 -14 -23 -2 -21 19 3
32 -2 32 -13 1 -17 47 -51 59 -44 5 3 12 -1 15 -10 3 -9 11 -12 18 -8 10 6 11
5 1 -8 -17 -19 -4 -31 16 -16 9 7 13 8 9 4 -10 -12 32 -47 45 -39 6 4 8 0 4
-9 -8 -22 3 -30 21 -15 13 9 14 9 8 0 -4 -8 -1 -13 8 -13 9 0 16 -7 16 -15 0
-9 12 -18 30 -21 17 -4 30 -13 30 -21 0 -8 6 -13 13 -10 14 5 39 -17 30 -27
-12 -12 13 -6 26 7 11 10 12 8 6 -10 -5 -17 -3 -22 8 -17 8 3 23 -3 32 -13 10
-10 21 -18 24 -18 3 0 5 -4 3 -8 -1 -5 2 -6 7 -3 5 3 14 -1 21 -9 7 -8 18 -15
25 -15 8 0 16 -6 18 -12 4 -10 6 -10 6 0 1 6 6 12 11 12 6 0 9 -6 8 -12 -2 -7
3 -12 10 -10 6 1 12 -6 12 -16 0 -12 9 -18 27 -20 15 -1 30 -8 35 -15 4 -6 8
-8 8 -3 0 6 7 1 16 -10 8 -10 13 -14 10 -8 -3 6 1 11 9 11 8 0 12 -4 10 -8 -3
-3 3 -13 12 -20 11 -10 14 -10 9 -2 -5 9 -2 11 8 7 9 -3 16 -13 16 -22 0 -13
3 -12 14 4 14 18 15 18 25 -8 7 -19 15 -26 26 -22 10 4 15 0 15 -12 0 -16 2
-17 10 -4 6 10 10 11 10 3 0 -7 9 -13 20 -13 11 0 20 -5 20 -11 0 -5 4 -8 9
-4 5 3 17 -2 25 -11 12 -11 16 -12 16 -2 0 10 2 10 9 -1 7 -11 9 -11 14 0 4
10 6 8 6 -4 1 -10 6 -15 11 -12 6 3 10 1 10 -4 0 -6 6 -11 14 -11 8 0 17 -6
19 -12 4 -10 6 -10 6 0 1 17 21 15 21 -2 0 -9 7 -12 20 -9 12 3 20 0 20 -8 0
-7 3 -9 7 -6 3 4 17 0 31 -9 17 -11 22 -12 16 -3 -7 12 -5 12 9 1 9 -8 21 -11
27 -7 5 3 10 2 10 -4 0 -5 10 -13 22 -17 13 -4 26 -12 30 -18 5 -7 8 -6 8 4 0
9 3 11 8 5 12 -17 52 -36 52 -25 0 6 12 3 26 -6 14 -10 40 -19 56 -21 17 -2
37 -8 45 -14 10 -9 13 -8 13 2 0 11 2 11 10 -1 5 -8 12 -11 16 -7 4 4 18 0 32
-9 17 -11 22 -12 17 -3 -6 11 -5 12 6 2 7 -7 23 -13 35 -13 13 0 26 -5 29 -10
5 -8 12 -7 23 2 12 10 14 10 8 1 -5 -9 2 -13 24 -13 22 0 29 -4 24 -12 -5 -9
-2 -9 9 1 9 7 17 9 17 4 0 -6 14 -10 31 -11 17 0 37 -6 45 -13 11 -9 14 -9 14
2 0 10 3 10 12 1 7 -7 31 -12 55 -12 28 0 43 -4 43 -12 0 -9 4 -8 10 2 8 12
10 12 10 1 0 -8 7 -11 20 -8 11 3 22 2 25 -2 2 -4 18 -6 35 -3 17 2 30 0 30
-6 0 -7 35 -10 100 -9 79 2 100 -1 100 -12 0 -11 3 -11 17 0 10 8 14 9 10 2
-6 -9 7 -12 46 -11 29 1 58 -2 64 -5 7 -4 15 -3 18 3 4 6 12 7 18 3 7 -5 26
-7 42 -6 53 4 288 2 296 -3 4 -2 10 0 13 5 4 5 17 8 31 5 13 -2 27 0 30 6 4 6
11 8 16 5 5 -4 9 -1 9 6 0 8 4 8 13 1 6 -5 21 -6 31 -3 11 4 39 4 63 1 31 -5
46 -3 54 7 10 11 15 11 27 1 9 -7 13 -8 9 -2 -6 10 15 13 110 17 12 1 19 5 17
9 -4 7 64 13 90 9 4 -1 13 3 20 8 6 5 27 10 46 12 19 2 41 8 49 13 12 9 13 8
6 -4 -6 -12 -5 -13 6 -2 7 6 25 12 39 12 14 0 32 6 39 13 11 10 12 9 6 -2 -6
-10 -4 -12 6 -5 17 10 36 15 66 17 12 0 19 5 16 10 -3 5 0 7 8 5 8 -3 20 2 26
11 11 14 14 14 23 1 9 -13 12 -13 20 2 7 11 19 15 34 12 14 -2 28 0 31 6 4 6
11 8 16 5 5 -4 12 1 15 9 3 9 10 13 15 10 5 -3 6 -10 3 -16 -4 -7 -2 -8 5 -4
6 4 9 12 6 17 -4 5 3 9 14 9 12 0 21 6 21 13 0 8 4 7 10 -3 7 -11 10 -11 10
-2 0 7 4 11 9 7 5 -3 12 -1 16 4 3 6 12 8 19 5 8 -3 17 -1 21 5 3 6 15 11 25
11 10 0 21 6 23 13 4 9 6 9 6 -1 1 -10 4 -10 15 0 8 7 12 16 9 20 -2 5 1 8 6
8 6 0 11 -5 11 -12 0 -6 9 -1 20 12 13 15 20 18 20 9 0 -11 2 -11 10 1 5 8 10
11 10 5 0 -5 7 -2 14 8 14 18 15 18 26 0 11 -17 11 -17 6 1 -5 15 -2 18 18 14
19 -4 23 -1 18 10 -4 11 -1 14 10 9 10 -3 19 1 22 10 5 12 9 13 20 3 12 -9 17
-7 25 9 7 12 17 18 26 15 10 -4 15 0 15 12 0 12 3 15 8 7 5 -8 11 -8 24 1 10
7 16 16 13 20 -3 3 1 2 7 -4 18 -15 28 -12 21 7 -4 11 -3 14 5 9 7 -4 12 -2
12 6 0 10 3 9 10 -2 7 -12 11 -10 19 10 5 14 10 19 10 12 1 -10 5 -10 20 0 11
7 17 17 14 23 -4 5 -3 7 2 3 4 -4 15 -2 23 5 13 10 14 9 7 -3 -4 -8 1 -6 12 5
11 11 18 25 15 30 -3 6 1 4 9 -3 11 -10 17 -8 32 10 10 13 16 17 12 11 -4 -9
-1 -11 9 -7 9 3 16 12 16 20 0 8 5 14 10 14 6 0 10 -4 10 -10 0 -5 5 -10 11
-10 5 0 7 5 4 10 -3 6 1 10 10 10 9 0 14 4 11 9 -7 11 22 23 35 15 5 -3 9 1 9
9 0 24 24 39 39 24 7 -6 12 -7 11 -2 -5 24 1 32 23 31 13 -1 21 4 19 11 -1 7
5 13 14 13 8 0 13 4 10 9 -3 5 1 12 10 15 10 4 13 2 8 -7 -5 -8 -2 -8 9 2 9 7
14 18 10 25 -4 6 2 4 13 -4 10 -8 16 -10 11 -5 -4 5 5 15 20 22 26 12 27 12 3
7 -24 -5 -24 -4 -5 8 11 7 26 13 34 14 8 2 17 8 21 14 4 6 16 13 26 14 10 2
18 9 16 15 -1 6 3 11 9 11 5 0 8 4 4 9 -3 5 -1 12 5 16 5 3 10 2 10 -4 0 -6 7
-8 15 -5 8 4 13 9 11 13 -2 3 3 15 11 26 15 19 15 19 8 -3 -7 -23 -6 -23 14
-5 12 9 21 25 21 35 0 10 10 20 25 24 14 3 22 10 19 15 -3 5 2 10 10 10 31 3
35 4 48 19 11 12 11 12 -4 1 -13 -9 -18 -10 -18 -2 0 11 47 36 62 33 4 -1 4 6
1 15 -5 12 -3 14 7 8 9 -5 11 -4 6 3 -4 8 3 16 18 22 15 5 25 15 24 22 -2 7 5
12 14 12 14 -1 15 2 8 17 -8 14 -7 17 4 13 8 -3 17 0 22 7 5 8 3 10 -6 4 -9
-5 -11 -4 -6 4 6 9 11 9 21 1 11 -9 13 -6 9 16 -4 23 -3 25 9 16 11 -10 17 -9
27 2 6 9 9 20 6 25 -4 5 -2 12 4 16 5 3 10 1 10 -5 0 -6 4 -9 10 -5 5 3 7 12
4 19 -3 8 0 17 7 22 7 4 10 3 6 -3 -3 -5 0 -10 7 -10 7 0 13 7 12 16 -1 9 6
16 14 16 8 1 14 6 12 13 -1 7 8 16 21 21 25 10 55 41 39 41 -5 0 -12 -7 -16
-15 -3 -8 -10 -15 -16 -15 -6 0 -2 10 10 22 11 12 20 26 20 30 0 5 4 7 8 4 5
-3 16 4 25 15 9 10 12 19 6 19 -5 0 -7 5 -4 10 4 6 11 8 16 5 5 -4 9 2 10 12
0 10 3 13 6 6 2 -7 9 -13 14 -13 6 0 8 4 5 9 -3 5 1 24 9 42 8 19 14 28 15 22
0 -7 5 -13 12 -13 6 0 8 3 5 7 -4 3 -1 13 6 21 10 13 9 15 -3 8 -9 -4 -8 -2 2
7 10 8 15 17 11 21 -4 4 0 4 8 1 13 -5 16 0 14 19 -2 15 1 24 6 20 5 -3 6 -11
2 -17 -4 -7 1 -6 10 2 13 11 15 17 6 28 -10 11 -8 12 7 7 10 -4 16 -4 12 1 -4
4 0 14 10 22 11 10 12 12 2 8 -8 -4 -4 3 10 15 14 12 19 19 13 15 -7 -3 -13
-1 -13 4 0 6 7 11 15 11 15 0 40 36 40 60 1 8 6 14 12 13 7 -2 15 7 19 20 4
12 14 28 23 35 13 11 13 12 1 7 -10 -4 -9 -2 2 8 10 8 15 17 12 20 -3 3 0 15
8 26 8 12 18 18 21 14 4 -3 7 1 7 10 0 10 6 17 13 17 8 0 7 4 -3 10 -11 7 -11
10 -2 10 8 0 10 5 6 12 -5 8 -2 9 9 5 20 -8 22 3 5 23 -7 8 -9 12 -4 8 8 -7
18 1 46 36 11 15 12 18 1 12 -9 -6 -12 -5 -9 5 3 8 10 13 16 12 5 -1 13 4 16
12 3 8 0 15 -7 16 -7 0 -1 5 13 11 14 6 20 12 13 15 -10 3 -10 7 0 18 7 7 15
11 20 8 4 -2 7 1 7 6 0 6 -5 11 -11 11 -6 0 -4 7 5 15 8 9 12 23 9 32 -5 12
-2 15 10 10 12 -4 14 -2 10 10 -3 8 0 19 8 24 12 7 12 9 -1 9 -10 0 -7 7 10
21 14 11 18 17 10 13 -12 -6 -13 -5 -3 8 7 8 9 19 5 23 -4 5 1 5 11 2 9 -4 17
-2 17 3 0 6 -4 10 -10 10 -5 0 -10 5 -10 11 0 5 3 8 8 6 4 -3 13 1 20 9 8 9 9
14 2 14 -7 0 -5 7 4 15 8 9 12 23 9 32 -5 12 -3 14 8 8 11 -7 11 -5 -1 10 -8
10 -10 16 -5 13 11 -7 29 11 31 30 3 38 5 43 14 37 6 -3 10 -1 10 4 0 6 -6 11
-12 11 -9 0 -8 4 2 10 8 5 11 10 6 10 -4 0 -1 11 8 25 12 18 13 25 4 26 -7 0
-4 4 6 8 12 5 20 20 23 41 2 19 9 38 16 42 9 6 9 8 -1 8 -10 0 -10 4 0 23 7
12 11 28 9 36 -1 8 2 10 11 5 10 -6 10 -4 -1 9 -9 11 -10 17 -2 17 6 0 11 5
11 11 0 5 -6 7 -12 3 -8 -5 -7 0 2 11 8 10 10 16 4 12 -15 -9 -15 43 0 62 9
12 8 13 -2 7 -11 -6 -11 -4 -3 13 6 12 16 30 22 42 8 17 8 19 -3 13 -10 -6
-10 -4 1 9 7 9 10 17 6 17 -4 0 -2 7 5 15 10 12 10 15 -1 15 -9 0 -7 5 5 11
15 9 16 13 5 20 -8 5 -9 9 -4 9 6 0 12 17 13 37 2 21 8 41 15 45 9 6 8 8 -3 8
-12 0 -12 2 -2 9 8 4 13 11 13 15 -1 3 -1 9 0 14 1 4 1 22 1 40 0 17 6 32 12
32 6 0 5 4 -3 9 -13 8 -13 12 -1 26 8 10 13 34 11 57 -1 21 3 46 9 54 10 11
10 14 -1 14 -10 0 -11 2 -2 8 8 5 13 44 14 115 1 59 5 110 10 113 14 8 12 494
-2 494 -8 0 -8 5 1 15 10 12 10 15 0 15 -8 0 -10 3 -7 6 3 4 2 15 -3 25 -7 12
-6 19 3 22 9 4 9 6 0 6 -9 1 -10 8 -3 26 5 13 6 27 1 29 -4 3 -6 19 -3 36 3
21 0 30 -9 30 -11 0 -11 2 1 10 10 6 11 10 3 10 -9 0 -13 18 -13 55 0 36 -4
55 -12 55 -9 0 -9 3 0 12 15 15 16 31 1 22 -8 -4 -10 8 -8 40 3 36 1 46 -11
46 -12 0 -13 2 -1 9 7 5 9 10 3 12 -5 2 -12 27 -13 54 -2 28 -7 52 -11 55 -4
3 -8 27 -9 53 -2 27 -6 50 -11 53 -4 3 -8 14 -8 25 0 10 -6 19 -12 19 -9 0 -8
4 2 10 10 6 11 10 3 10 -7 0 -13 10 -13 23 0 13 -6 29 -12 36 -11 11 -10 12 1
6 9 -5 5 5 -8 23 -14 21 -18 32 -10 32 10 0 10 3 1 12 -7 7 -12 20 -12 30 0
10 -6 18 -12 18 -9 0 -8 4 2 10 8 5 10 10 4 10 -6 0 -11 7 -12 15 -1 8 -3 22
-4 30 -1 8 -5 15 -10 15 -4 0 -8 11 -8 24 0 13 -6 27 -12 29 -10 4 -10 6 0 6
10 1 10 4 0 15 -7 8 -16 12 -19 10 -3 -2 -6 3 -6 11 0 8 5 11 11 8 6 -4 5 1
-3 10 -7 9 -10 17 -5 17 5 0 1 5 -10 11 -14 9 -15 13 -5 19 10 7 10 12 0 23
-8 10 -9 17 -2 22 9 5 9 16 2 54 -1 2 -8 -2 -16 -9 -12 -10 -15 -10 -15 3 0 9
-9 21 -21 27 -16 9 -18 14 -8 26 9 11 8 14 -4 14 -9 0 -19 5 -23 12 -4 7 -3 8
5 4 6 -4 3 8 -8 27 -14 25 -15 34 -5 34 7 0 10 -5 7 -10 -3 -6 -1 -7 5 -3 17
10 15 36 -3 36 -18 0 -20 16 -2 23 7 4 4 8 -9 12 -15 5 -20 12 -17 26 5 18 -9
24 -42 20 -5 -1 -2 5 8 12 23 19 22 31 -3 24 -13 -3 -20 0 -20 8 0 7 -5 15
-10 17 -6 2 -12 14 -13 28 0 14 -8 30 -17 37 -13 11 -13 12 3 13 17 0 17 1 3
16 -9 8 -14 20 -11 25 4 5 1 9 -4 9 -6 0 -11 6 -11 14 0 7 -9 16 -21 19 -17 5
-19 9 -10 25 9 18 8 19 -12 15 -18 -4 -19 -3 -7 6 11 8 12 11 2 11 -7 0 -10 5
-7 10 3 6 1 10 -5 10 -7 0 -9 9 -5 23 5 17 4 19 -4 7 -8 -11 -11 -12 -11 -2 0
8 -5 10 -12 6 -8 -5 -8 -2 1 10 12 15 12 17 0 14 -8 -2 -13 4 -13 14 1 10 -1
16 -5 14 -9 -5 -31 21 -24 28 4 3 1 6 -6 6 -8 0 -10 8 -6 23 5 17 4 19 -4 7
-10 -13 -15 -8 -12 12 0 4 -7 4 -16 1 -11 -4 -14 -3 -9 5 4 7 2 12 -6 12 -9 0
-9 3 2 10 12 8 10 10 -9 10 -18 0 -21 3 -12 13 8 11 3 21 -24 46 -20 18 -33
36 -30 40 3 5 -2 12 -11 15 -10 4 -13 2 -8 -6 4 -7 3 -8 -4 -4 -7 4 -12 14
-12 22 0 9 -5 12 -12 8 -8 -5 -9 -2 -5 10 4 9 3 14 -2 11 -5 -3 -12 -1 -16 5
-3 5 0 10 7 10 10 0 9 3 -2 9 -8 6 -18 7 -22 5 -13 -8 -9 11 5 25 10 11 8 12
-12 6 -15 -4 -21 -3 -17 3 8 13 -32 62 -52 63 -11 0 -13 2 -4 6 10 4 9 9 -5
20 -10 8 -12 11 -4 7 9 -4 12 -3 7 4 -4 6 -14 8 -23 5 -11 -4 -14 -3 -9 5 4 7
2 12 -4 12 -6 0 -8 5 -4 12 5 8 2 9 -9 5 -11 -4 -17 -1 -17 9 0 8 -4 12 -10 9
-5 -3 -10 1 -10 9 0 23 -37 58 -44 43 -4 -7 -4 -2 -2 11 4 19 2 21 -10 11 -8
-6 -17 -9 -21 -5 -3 3 -1 6 5 6 7 0 12 4 12 10 0 5 -7 7 -15 4 -11 -5 -13 -2
-8 12 4 12 3 15 -5 10 -7 -4 -12 -2 -12 4 0 6 -5 8 -12 4 -8 -5 -9 -2 -5 9 3
9 1 19 -5 23 -7 5 -8 2 -4 -7 4 -8 1 -6 -7 4 -11 14 -16 15 -21 5 -3 -7 -3 -3
0 10 5 20 -4 27 -29 23 -5 -1 -6 2 -3 7 3 5 -4 14 -14 22 -10 8 -16 18 -13 24
4 6 -1 5 -10 -3 -15 -11 -17 -11 -17 1 0 20 -32 48 -54 48 -9 0 -14 5 -11 10
3 6 1 10 -5 10 -6 0 -8 5 -5 10 3 6 -1 10 -9 10 -9 0 -16 5 -16 11 0 5 -4 7
-10 4 -5 -3 -10 -1 -10 5 0 7 -7 9 -16 6 -8 -3 -13 -2 -10 2 3 5 -4 14 -14 22
-10 8 -16 18 -13 24 4 6 -1 5 -10 -3 -14 -11 -17 -11 -17 1 0 17 -46 59 -54
50 -4 -3 -16 5 -27 17 -17 18 -23 20 -31 9 -6 -9 -7 -5 -2 12 6 23 5 24 -10
11 -15 -12 -17 -12 -14 0 2 8 8 18 13 22 6 5 0 5 -12 2 -15 -4 -23 -2 -23 5 0
7 -7 10 -15 6 -8 -3 -15 -1 -15 4 0 6 -7 10 -15 10 -8 0 -15 6 -15 14 0 8 -5
18 -12 22 -8 5 -9 2 -4 -11 7 -18 6 -18 -13 -1 -11 10 -18 23 -14 29 4 7 -1 8
-12 3 -14 -5 -25 0 -38 16 -10 13 -16 16 -12 8 4 -10 1 -9 -8 3 -8 9 -19 17
-25 17 -6 0 -13 6 -15 13 -4 9 -6 9 -6 -1 -1 -10 -4 -10 -15 0 -8 7 -12 16 -9
21 2 4 -5 7 -17 7 -14 0 -19 4 -14 13 5 7 0 6 -11 -3 -11 -9 -16 -10 -11 -2 4
7 1 12 -8 12 -9 0 -16 4 -16 9 0 6 -9 8 -21 6 -18 -4 -19 -2 -7 12 9 12 9 15
1 9 -7 -4 -13 -3 -13 3 0 5 -11 8 -24 7 -19 -2 -23 1 -19 18 4 17 3 18 -6 6
-10 -13 -11 -13 -11 0 0 13 -1 13 -10 0 -8 -12 -10 -12 -10 5 0 17 -2 17 -10
5 -8 -12 -10 -12 -10 5 0 17 -2 17 -10 5 -6 -10 -10 -11 -10 -2 0 6 -5 12 -11
12 -5 0 -7 -5 -3 -12 4 -7 3 -8 -5 -4 -6 4 -9 11 -6 16 3 5 1 11 -5 15 -5 3
-10 0 -10 -7 0 -8 -5 -6 -11 5 -6 9 -14 15 -20 12 -5 -4 -9 -1 -9 4 0 6 -7 11
-15 11 -8 0 -15 6 -15 13 0 8 -4 7 -10 -3 -6 -10 -10 -11 -10 -2 0 6 -7 12
-15 12 -8 0 -15 5 -15 10 0 6 -7 10 -15 10 -8 0 -15 6 -15 13 0 8 -4 7 -10 -3
-6 -10 -10 -11 -10 -2 0 6 -11 12 -25 12 -14 0 -25 5 -25 11 0 6 -9 9 -19 6
-11 -3 -22 1 -25 9 -3 7 -12 11 -19 8 -8 -3 -21 2 -30 10 -8 9 -29 17 -46 18
-17 1 -31 6 -31 10 0 4 -7 8 -15 8 -8 0 -15 5 -15 11 0 8 -5 8 -15 -1 -10 -9
-15 -9 -15 -1 0 6 -7 11 -15 11 -8 0 -15 6 -15 13 0 8 -4 7 -10 -3 -6 -10 -10
-11 -10 -2 0 6 -9 12 -20 12 -11 0 -20 5 -20 12 0 9 -3 9 -12 0 -15 -15 -32
-16 -23 -2 3 6 -5 10 -19 10 -14 0 -28 5 -31 10 -5 8 -12 7 -23 -2 -13 -11
-14 -11 -7 1 6 11 4 13 -8 8 -10 -3 -17 -2 -17 2 0 5 -9 7 -20 4 -11 -3 -20 0
-20 6 0 6 -3 10 -7 10 -5 -1 -25 -1 -46 0 -28 1 -36 4 -31 14 5 8 3 8 -9 -2
-14 -11 -18 -11 -23 3 -3 9 -10 13 -15 10 -6 -3 -15 -1 -22 4 -7 5 -25 10 -41
10 -15 0 -32 5 -36 12 -6 9 -9 9 -13 -1 -4 -10 -6 -10 -6 -1 -1 8 -18 12 -52
12 -28 0 -60 5 -71 11 -14 7 -18 8 -14 0 4 -5 -6 -4 -21 4 -15 8 -29 11 -31 6
-3 -9 -51 -3 -67 9 -5 4 -77 8 -160 9 -87 2 -155 7 -162 13 -9 7 -13 7 -13 -2
0 -10 -3 -10 -14 -1 -16 14 -286 14 -286 1z m-2048 -682 c-7 -7 -12 -8 -12 -2
0 14 12 26 19 19 2 -3 -1 -11 -7 -17z m5143 -627 c3 -5 2 -12 -3 -15 -5 -3 -9
1 -9 9 0 17 3 19 12 6z m184 -224 c8 -10 7 -14 -2 -14 -8 0 -14 6 -14 14 0 7
1 13 2 13 2 0 8 -6 14 -13z m-6504 -487 c-3 -5 -12 -10 -18 -10 -7 0 -6 4 3
10 19 12 23 12 15 0z m6816 -93 c-10 -9 -11 -8 -5 6 3 10 9 15 12 12 3 -3 0
-11 -7 -18z m29 -27 c0 -5 -4 -10 -10 -10 -5 0 -10 5 -10 10 0 6 5 10 10 10 6
0 10 -4 10 -10z m-6636 -3926 c3 -8 2 -12 -4 -9 -6 3 -10 10 -10 16 0 14 7 11
14 -7z m436 -519 c11 -13 10 -14 -4 -9 -9 3 -16 10 -16 15 0 13 6 11 20 -6z
m295 -265 c10 -11 16 -20 13 -20 -3 0 -13 9 -23 20 -10 11 -16 20 -13 20 3 0
13 -9 23 -20z m540 -368 c-3 -3 -11 0 -18 7 -9 10 -8 11 6 5 10 -3 15 -9 12
-12z"/>
<path d="M1535 6980 c-3 -5 -1 -10 4 -10 6 0 11 5 11 10 0 6 -2 10 -4 10 -3 0
-8 -4 -11 -10z"/>
</g>
</svg>
